# xmcd CD database file generated by OrangeCD 5.2
#
# Track frame offsets:
#	150
#	16175
#	29077
#	41835
#	53295
#	64192
#	78116
#	89050
#	105736
#	116409
#
# Disc length: 1762 seconds
#
# Revision: 0
# Processed by: cddbd v1.5.1PL0 Copyright (c) Steve Scherf et al.
# Submitted via: OrangeCD 5.2
#
DISCID=7906e00a
DTITLE=Johnny Cash - The Baron
DYEAR=1981
DGENRE=Country
TTITLE0=The Baron
TTITLE1=Mobile Bay
TTITLE2=The Hard Way
TTITLE3=A Ceiling Four Walls And A Floor
TTITLE4=Hey Hey Train
TTITLE5=The Reverend Mr. Black
TTITLE6=The Blues Keep Getting Bluer
TTITLE7=Chattanooga City Limit
TTITLE8=Thanks To You
TTITLE9=The Greatest Love Affair
EXTD=
EXTT0=
EXTT1=
EXTT2=
EXTT3=
EXTT4=
EXTT5=
EXTT6=
EXTT7=
EXTT8=
EXTT9=
PLAYORDER=
